# xmcd
#
# Track frame offsets:
#	150
#	12577
#	24344
#	37520
#	47920
#	59931
#	72911
#	89144
#	101906
#	119121
#	129537
#	140562
#	148939
#	162109
#	176063
#	190688
#	199604
#	209967
#
# Disc length: 3049 seconds
#
# Revision: 0
# Processed by: cddbd v1.5.2PL0 Copyright (c) Steve Scherf et al.
# Submitted via: audiograbber 1.83.01
#
DISCID=210be712
DTITLE=Verschiedene Interpreten - Alilene
DYEAR=2007
DGENRE=Country
TTITLE0=Moe Bandy - Barstool Mountain
TTITLE1=Lynn Anderson - How Can I Unlove You
TTITLE2=T Graham Brown - If You Could See Me Now
TTITLE3=Patsy Cline - Three Cigarettes In THe Ashtray
TTITLE4=Lacy J Dalton - Hillbilly Girl With The Blues
TTITLE5=Holly Dunn - Someday
TTITLE6=Exile - She´s A Miracle
TTITLE7=Donna Fargo - Don´t Be Angry
TTITLE8=Feddy Fender - Margaritaville
TTITLE9=Mickey Gilley - I´m To Blame
TTITLE10=Don Gibson - Oh Lonesome Me
TTITLE11=Waylon Jennings - Abilene
TTITLE12=Jack Greene - Statue Of A Fool
TTITLE13=Willie Nelson - Home Is Where You´re Happy
TTITLE14=Lynn Anderson - We´ve Only Just Begun
TTITLE15=Burl Ives - Little Bitty Tears
TTITLE16=Waylon Jennings - Lorena
TTITLE17=Juice Newton - You Make Me Want To Make You Mine
EXTD=
EXTT0=
EXTT1=
EXTT2=
EXTT3=
EXTT4=
EXTT5=
EXTT6=
EXTT7=
EXTT8=
EXTT9=
EXTT10=
EXTT11=
EXTT12=
EXTT13=
EXTT14=
EXTT15=
EXTT16=
EXTT17=
PLAYORDER=
